<svg xmlns="http://www.w3.org/2000/svg" viewBox="0 0 100 100">
  
  <path fill="#111827" d="M15 95V30a15 15 0 0 1 15-15h40a15 15 0 0 1 15 15v65h-20V60H35v35Z" stroke="#374151" stroke-width="3"/>
  
  <g fill="#22d3ee">
    <path d="M40 70h20v20H75v5H25v-5h15V70Z"/>
    
    <rect x="25" y="25" width="2" height="15"/>
    <rect x="32" y="25" width="2" height="15"/>
    <rect x="39" y="25" width="2" height="15"/>
    <rect x="46" y="25" width="2" height="15"/>
    <rect x="53" y="25" width="2" height="15"/>
    <rect x="60" y="25" width="2" height="15"/>
    <rect x="67" y="25" width="2" height="15"/>
    <rect x="74" y="25" width="2" height="15"/>
  </g>
</svg>
